<svg xmlns="http://www.w3.org/2000/svg" viewBox="0 0 512 512" role="img" aria-label="OniPin">
  <defs>
    <linearGradient id="bg" x1="0" y1="0" x2="1" y2="1">
      <stop offset="0%" stop-color="#0a1628"/>
      <stop offset="100%" stop-color="#061018"/>
    </linearGradient>
    <radialGradient id="nebula" cx="35%" cy="30%" r="70%">
      <stop offset="0%" stop-color="#22d3ee" stop-opacity="0.55"/>
      <stop offset="45%" stop-color="#6366f1" stop-opacity="0.35"/>
      <stop offset="100%" stop-color="#0a1628" stop-opacity="0"/>
    </radialGradient>
    <linearGradient id="pin" x1="0" y1="0" x2="0" y2="1">
      <stop offset="0%" stop-color="#67e8f9"/>
      <stop offset="100%" stop-color="#06b6d4"/>
    </linearGradient>
  </defs>
  <rect width="512" height="512" rx="96" fill="url(#bg)"/>
  <rect width="512" height="512" rx="96" fill="url(#nebula)"/>
  <circle cx="140" cy="120" r="3" fill="#e0f2fe" opacity="0.9"/>
  <circle cx="380" cy="160" r="2" fill="#a5f3fc" opacity="0.8"/>
  <circle cx="420" cy="320" r="2.5" fill="#fff" opacity="0.7"/>
  <circle cx="100" cy="360" r="2" fill="#cffafe" opacity="0.75"/>
  <path fill="url(#pin)" d="M256 72c-62 0-112 48-112 110 0 82 96 210 104 222a10 10 0 0 0 16 0c8-12 104-140 104-222 0-62-50-110-112-110zm0 158a48 48 0 1 1 0-96 48 48 0 0 1 0 96z"/>
  <circle cx="256" cy="182" r="22" fill="#0a1628"/>
  <circle cx="256" cy="182" r="10" fill="#67e8f9"/>
</svg>
